<?xml version="1.0" standalone="no"?>
<!DOCTYPE svg PUBLIC "-//W3C//DTD SVG 20010904//EN"
 "http://www.w3.org/TR/2001/REC-SVG-20010904/DTD/svg10.dtd">
<svg version="1.0" xmlns="http://www.w3.org/2000/svg"
 width="280.000000pt" height="291.000000pt" viewBox="0 0 280.000000 291.000000"
 preserveAspectRatio="xMidYMid meet">

<g transform="translate(0.000000,291.000000) scale(0.100000,-0.100000)"
fill="#000000" stroke="none">
<path d="M779 2223 c-18 -21 -19 -147 -1 -165 10 -10 77 -14 272 -16 l260 -3
0 -788 c0 -614 3 -791 13 -804 26 -34 169 -39 202 -6 12 12 15 126 15 807 l1
792 247 0 c300 0 292 -3 292 100 0 49 -4 73 -16 84 -14 14 -86 16 -643 16
-573 0 -630 -1 -642 -17z"/>
<path d="M972 408 c-21 -21 -15 -50 10 -46 27 4 32 18 16 41 -11 14 -16 15
-26 5z"/>
</g>
</svg>
