<?xml version="1.0" standalone="no"?>
<!DOCTYPE svg PUBLIC "-//W3C//DTD SVG 20010904//EN"
 "http://www.w3.org/TR/2001/REC-SVG-20010904/DTD/svg10.dtd">
<svg version="1.0" xmlns="http://www.w3.org/2000/svg"
 width="757.000000pt" height="737.000000pt" viewBox="0 0 757.000000 737.000000"
 preserveAspectRatio="xMidYMid meet">

<g transform="translate(0.000000,737.000000) scale(0.100000,-0.100000)"
fill="#000000" stroke="none">
<path d="M2861 6674 c-123 -33 -232 -122 -292 -238 l-34 -65 -260 -3 c-294 -3
-303 -6 -345 -81 -41 -72 -11 -165 64 -201 29 -13 74 -16 288 -16 l253 0 28
-60 c41 -88 126 -171 223 -217 78 -37 81 -38 199 -38 118 0 121 1 198 37 243
116 342 397 225 636 -37 75 -123 165 -195 204 -102 56 -240 72 -352 42z m207
-301 c94 -44 122 -183 55 -264 -31 -37 -95 -69 -138 -69 -46 0 -109 34 -140
74 -73 96 -20 248 98 276 38 10 80 4 125 -17z"/>
<path d="M4982 6671 c-119 -35 -231 -129 -285 -243 l-32 -68 -240 0 c-132 0
-256 -5 -275 -10 -28 -8 -174 -149 -685 -660 l-650 -650 -777 0 c-860 0 -820
3 -866 -64 -26 -39 -30 -112 -7 -157 9 -16 30 -39 48 -49 31 -19 56 -20 870
-20 709 0 842 2 865 14 15 8 315 303 667 655 l640 641 207 0 207 0 33 -62 c46
-87 121 -158 214 -204 71 -36 85 -39 178 -42 84 -3 112 0 166 18 339 113 441
530 190 780 -124 124 -299 169 -468 121z m180 -281 c146 -41 176 -232 49 -317
-90 -61 -207 -27 -252 71 -24 54 -24 100 2 153 23 48 57 76 109 91 46 13 49
14 92 2z"/>
<path d="M1799 5635 c-55 -30 -61 -110 -13 -156 l26 -24 334 -3 c289 -2 339
-1 368 13 59 28 74 103 32 152 l-24 28 -349 2 c-287 2 -353 0 -374 -12z"/>
<path d="M4078 5621 c-44 -39 -46 -97 -5 -138 l27 -28 323 -3 c177 -2 337 0
356 3 76 14 107 103 57 162 l-24 28 -351 3 -350 3 -33 -30z"/>
<path d="M5800 5359 c-69 -11 -183 -67 -233 -114 -48 -45 -93 -108 -117 -162
l-19 -43 -878 0 c-864 0 -879 0 -911 -20 -43 -26 -76 -99 -69 -147 8 -46 31
-79 70 -103 31 -19 57 -20 908 -20 l876 0 33 -66 c88 -179 294 -287 489 -257
138 21 255 97 331 215 53 82 73 164 68 280 -3 82 -8 103 -40 168 -43 91 -89
146 -164 195 -97 65 -230 93 -344 74z m159 -309 c105 -53 131 -180 56 -267
-44 -52 -81 -67 -149 -61 -102 8 -162 81 -154 187 5 70 31 111 90 140 54 26
108 27 157 1z"/>
<path d="M2465 4306 c-32 -32 -40 -69 -25 -107 27 -63 -82 -59 1472 -59 l1417
0 28 24 c23 20 28 32 28 71 0 39 -5 51 -28 71 l-28 24 -1420 0 -1420 0 -24
-24z"/>
<path d="M6535 4036 c-127 -31 -255 -135 -311 -253 l-29 -62 -1620 0 -1620 -1
-665 -665 -665 -664 -198 -3 -198 -3 -40 -42 c-35 -38 -39 -48 -39 -94 0 -35
7 -63 21 -86 38 -60 51 -63 323 -63 l244 0 44 36 c23 20 326 319 671 665 l628
629 1557 0 1558 0 31 -62 c83 -168 231 -258 423 -258 369 0 590 398 399 716
-102 169 -318 258 -514 210z m212 -312 c48 -36 66 -70 71 -133 3 -48 0 -67
-17 -98 -71 -126 -246 -121 -312 10 -40 78 -9 179 71 227 46 27 146 24 187 -6z"/>
<path d="M1661 4024 c-124 -33 -246 -133 -298 -243 l-28 -60 -427 -3 c-413 -3
-427 -4 -454 -24 -44 -32 -66 -68 -71 -115 -6 -60 21 -108 77 -136 44 -23 49
-23 460 -24 l415 0 28 -59 c54 -115 166 -209 291 -245 45 -13 84 -16 157 -13
85 4 106 9 172 40 187 89 300 295 268 492 -23 142 -120 284 -238 348 -102 56
-240 72 -352 42z m164 -285 c55 -16 92 -44 115 -89 68 -134 -59 -293 -201
-251 -108 33 -160 150 -110 249 25 49 51 71 103 87 54 17 46 17 93 4z"/>
<path d="M3307 2989 c-32 -18 -50 -75 -37 -114 23 -69 -49 -65 1059 -65 l1000
0 28 24 c23 20 28 32 28 71 0 39 -5 51 -28 71 l-28 24 -1002 0 c-694 -1 -1008
-4 -1020 -11z"/>
<path d="M5800 2709 c-78 -13 -186 -69 -246 -128 -28 -27 -68 -81 -88 -120
l-37 -71 -747 0 c-847 0 -797 5 -840 -80 -37 -73 -17 -149 51 -190 31 -19 56
-20 783 -20 l751 0 33 -66 c88 -179 294 -287 489 -257 181 28 331 156 383 326
16 55 19 86 16 165 -6 118 -31 186 -97 268 -109 136 -282 202 -451 173z m185
-324 c89 -67 98 -193 18 -266 -41 -39 -66 -49 -118 -49 -57 0 -116 29 -147 72
-33 47 -33 159 -1 204 55 77 175 96 248 39z"/>
<path d="M2461 2373 c-68 -33 -95 -114 -63 -187 36 -79 56 -86 272 -86 l185 0
670 -670 670 -670 235 0 235 0 28 -60 c15 -33 53 -86 83 -120 179 -193 491
-197 675 -9 275 279 112 749 -276 799 -193 25 -398 -85 -479 -258 l-30 -62
-173 0 -173 0 -660 660 c-362 363 -671 665 -685 670 -15 6 -128 10 -253 10
-191 0 -232 -3 -261 -17z m2736 -1314 c56 -27 93 -87 93 -153 0 -100 -59 -166
-156 -174 -67 -6 -103 9 -148 59 -77 85 -51 214 54 267 55 28 101 28 157 1z"/>
<path d="M1991 1666 c-74 -41 -62 -153 19 -177 22 -6 158 -9 363 -7 l329 3 29
33 c44 49 34 119 -22 148 -39 20 -682 20 -718 0z"/>
<path d="M4078 1651 c-44 -39 -46 -98 -5 -138 l27 -28 323 -3 c177 -2 337 0
356 3 81 15 110 108 52 166 l-29 29 -346 0 -346 0 -32 -29z"/>
<path d="M3081 1375 c-126 -35 -242 -131 -295 -243 l-29 -61 -371 -3 c-285 -2
-377 -6 -397 -16 -36 -19 -79 -89 -79 -130 0 -47 26 -98 64 -125 31 -22 36
-22 406 -25 l375 -3 28 -60 c41 -87 127 -170 223 -216 78 -37 81 -38 199 -38
118 0 121 1 199 38 378 180 357 717 -35 869 -71 27 -213 34 -288 13z m223
-313 c57 -40 78 -84 73 -155 -5 -83 -61 -148 -142 -163 -70 -13 -162 35 -189
100 -69 166 113 320 258 218z"/>
</g>
</svg>
